<svg xmlns="http://www.w3.org/2000/svg" width="137" height="63" viewBox="0 0 137 63">
    <g fill="#fff" fill-rule="evenodd">
        <path d="M131.279 45.802l-63.164 12a.4.4 0 0 1-.158 0l-63.163-12a.42.42 0 0 1-.342-.412V4.855a.42.42 0 0 1 .42-.419H131.2a.42.42 0 0 1 .42.42V45.39a.42.42 0 0 1-.34.412M0 .42v48.642c0 .2.144.374.342.412L67.957 62.32a.488.488 0 0 0 .158 0l67.616-12.848a.42.42 0 0 0 .342-.412V.42A.42.42 0 0 0 135.65 0H.421A.42.42 0 0 0 0 .42"/>
        <path d="M15.955 17.712l22.94 27.7.247.145 5.002.939.5-.412V11.51l-.422-.42h-3.61c-.165.164-.257.255-.42.42v27.916l-.373.134-23.45-28.318-.325-.151H11.55l-.42.419v28.376c.128.156.213.257.342.412l3.61.678.5-.412V17.846l.372-.134M56.173 15.518H74.81c3.065 0 5.55 2.477 5.55 5.531v1.54c0 3.055-2.485 5.532-5.55 5.532H56.173c-.164-.164-.257-.255-.42-.42V15.938l.42-.42m0 17.04H66.98c.106.044.199.084.305.13l14.75 15.502.384.123 4.214-.8.227-.7L73.633 32.91l.153-.354h1.58c5.217 0 9.448-4.215 9.448-9.414v-2.646c0-5.2-4.231-9.414-9.45-9.414H51.72c-.165.162-.257.255-.42.418V47.51l.34.412 3.611.694.5-.412V32.976l.42-.419M94.117 40.818a10.671 10.671 0 0 0 9.963 3.375l20.511-3.892.342-.413V24.084l-.42-.42h-15.808l-.42.42v3.598l.42.419h11.356c.164.164.257.254.42.419v7.699l-.342.41-16.893 3.207a6.228 6.228 0 0 1-6.1-2.323c-.874-1.124-1.268-2.55-1.268-3.97V21.69c0-3.407 2.782-6.182 6.202-6.184l22.443-.017.42-.42-.003-3.598a86.884 86.884 0 0 1-.42-.419l-22.443.02c-5.884.004-10.651 4.757-10.651 10.62V33.4c0 2.71.876 5.4 2.691 7.418"/>
    </g>
</svg>
