<svg xmlns="http://www.w3.org/2000/svg" xmlns:xlink="http://www.w3.org/1999/xlink" width="120" height="120" viewBox="0 0 120 120">
    <defs>
        <path id="a" d="M0 0h119.233v119.031H0z"/>
    </defs>
    <g fill="none" fill-rule="evenodd">
        <mask id="b" fill="#fff">
            <use xlink:href="#a"/>
        </mask>
        <path fill="#FFF" d="M56.945 59.79L52.5 76.625 66.765 59.79h-5.612l4.677-17.535L52.268 59.79h4.677zM35.128 13.273l-.938-1.855 1.755-.888.938 1.858-1.755.885zm-10.633 2.669c-.045.04-.089.076-.14.016-.769-.82-1.482-.84-1.949-.445-.48.407-.605 1.025-.135 1.582 1.195 1.418 6.01-1.583 8.819 1.748 1.828 2.169 1.001 4.492-.809 6.015-2.095 1.767-3.983 1.759-5.421.42-.052-.061-.062-.105-.029-.158l1.784-2.378c.061-.052.101-.034.14.011.856.927 1.461.907 2.048.412.618-.52.703-1.187-.058-2.088-1.729-2.05-5.992 1.18-8.532-1.835-1.65-1.96-.942-4.024.745-5.449 1.658-1.396 3.537-1.768 5.198-.255.052.062.06.105.015.17l-1.676 2.234zm-7.819 8.073c-.97-.777-1.543-.632-1.986-.077l-.32.4 2.49 1.999.321-.4c.444-.554.464-1.144-.505-1.922zm-3.281-2.05c1.11-1.383 2.981-2.335 5.303-.472 1.4 1.122 1.743 2.335 1.568 3.434l6.412 2.211c.058.024.09.049.105.057.047.038.035.082-.013.143l-1.924 2.399c-.025.03-.065.05-.123.028l-5.863-2.33-.249.307 4.675 3.751c.062.049.067.104.019.165l-1.875 2.337c-.05.062-.107.068-.167.018l-10.577-8.485c-.061-.05-.068-.106-.018-.166l2.727-3.397zm7.373 12.823c.07.037.087.09.05.16l-3.4 6.504c-.035.068-.09.086-.16.05L5.231 35.21c-.07-.037-.086-.088-.05-.16l3.4-6.5c.037-.072.092-.088.16-.052l1.784.934c.071.036.086.088.051.158l-1.958 3.74 2.553 1.337 1.7-3.25c.039-.07.089-.089.162-.052l1.782.933c.068.035.086.09.05.159l-1.702 3.253 3.707 1.938 1.956-3.741c.037-.07.09-.089.16-.052l1.782.933zM6.455 42.707c-1.212-.359-1.65.006-1.85.688l-.219.738 8.934 2.635.22-.738c.2-.68.03-1.225-1.18-1.583l-5.905-1.74zm-4.009.051c.637-2.156 1.97-4.028 4.924-3.155l5.905 1.742c2.953.868 3.056 3.163 2.421 5.32l-1.1 3.728c-.021.077-.07.105-.146.082L1.428 46.633c-.075-.021-.103-.07-.08-.145l1.098-3.73zm9.345 12.605l.392-4.201c.007-.08.05-.115.128-.109l2.002.187c.078.007.115.05.108.128l-.678 7.305c-.008.077-.052.112-.13.105L.106 57.525c-.078-.008-.113-.053-.105-.13l.277-2.985c.007-.077.05-.113.13-.107l11.383 1.06zm1.93 4.809c.079-.002.12.035.124.113l.148 2.993c.003.08-.035.122-.113.125L.33 64.067c-.078.003-.12-.034-.123-.114L.06 60.962c-.004-.08.035-.122.113-.125l13.548-.665zm-1.306 12.765L2.083 74.982c-.075.016-.123-.015-.138-.09L1.36 71.95c-.015-.078.015-.125.094-.14l9.983-1.978c1.238-.245 1.478-.757 1.34-1.452-.138-.697-.56-1.095-1.798-.85L.998 69.508c-.075.017-.122-.015-.138-.093L.42 67.21c-.013-.077.017-.122.095-.138l10.33-2.049c2.709-.536 3.804 1.237 4.205 3.269.414 2.088.072 4.105-2.636 4.645zm3.22 5.84l-.305-.729c-.274-.653-.777-.936-1.925-.455l-.907.38c-1.148.48-1.3 1.037-1.025 1.692l.303.727 3.859-1.615zM9.498 80.77c-.253-.598-.683-.867-1.738-.425-1.057.443-1.169.938-.919 1.538l.207.492 2.657-1.113-.207-.492zm2.077-5.917l.945-.396c2.328-.975 3.746.01 4.791 2.505l1.602 3.818c.032.075.012.125-.062.157l-12.52 5.246c-.071.03-.123.009-.153-.063l-1.632-3.895c-.815-1.947-.381-3.667 1.71-4.545 1.365-.572 2.409-.325 3.159.238-.07-1.19.411-2.333 2.16-3.065zm5.795 18.079l2.306-1.752-.705-.932c-.518-.683-1.118-.858-2.006-.183-.9.683-.785 1.3-.285 1.96l.69.907zm4.041-1.304l-4.058 3.08-1.61-2.12c-1.032-1.361-.878-2.905.312-3.808 1-.762 2.596-.787 3.76.745l1.596 2.103zm4.864 5.03l-3.607 3.594-1.267-1.27.58-3.932-2.256 2.25-.905-.912 3.606-3.593 1.007 1.01-.673 4.542 2.608-2.599.907.91zm1.37 3.584l-.487 1.963 1.698-1.04-1.211-.923zm4.005.625l-4.844 2.788-1.07-.815 1.329-5.472 1.075.82-.247 1.032 1.847 1.41.881-.547 1.029.784zm5.136 9.728c.054.023.109.047.079.12-.379 1.058-.072 1.7.493 1.937.582.241 1.19.068 1.472-.604.713-1.711-4.16-4.623-2.48-8.645 1.095-2.62 3.54-2.946 5.723-2.033 2.53 1.057 3.385 2.74 2.852 4.635-.03.07-.064.1-.125.097l-2.934-.5c-.073-.03-.076-.075-.053-.129.432-1.19.138-1.716-.57-2.013-.747-.312-1.377-.083-1.833 1.008-1.034 2.475 3.791 4.79 2.27 8.427-.989 2.368-3.15 2.685-5.189 1.832-2.001-.839-3.19-2.339-2.603-4.509.028-.073.063-.101.143-.09l2.755.467zm10.872 3.287c-.243 1.218.15 1.658.847 1.8l.501.098.629-3.13-.504-.102c-.695-.14-1.228.117-1.473 1.334zm-.31 3.86c-1.74-.349-3.445-1.579-2.86-4.497.352-1.758 1.27-2.618 2.325-2.97l-.985-6.713a.31.31 0 0 1 .005-.122c.01-.057.053-.068.13-.053l3.015.605c.04.006.075.035.083.096l.629 6.28.388.079 1.177-5.877c.015-.08.063-.108.14-.093l2.938.59c.077.013.108.061.093.138l-2.668 13.3c-.017.077-.062.108-.14.09l-4.27-.853zm7.953-12.459c0-.078.042-.118.12-.116l7.339.056c.078.002.118.042.116.12l-.106 13.572c-.002.077-.042.117-.12.117l-7.337-.059c-.078 0-.118-.041-.118-.12l.016-2.011c0-.079.039-.119.12-.117l4.22.033.022-2.881-3.668-.027c-.079 0-.119-.043-.117-.122l.017-2.01c-.002-.08.038-.118.118-.116l3.668.026.034-4.18-4.222-.035c-.078 0-.118-.038-.118-.118l.016-2.012zm8.122.145c-.03-.055-.033-.076-.033-.076-.007-.039.026-.065.086-.075l3.062-.58c.058-.012.105.021.135.075l2.51 4.666.438-1.188-.733-3.877c-.015-.078.015-.123.093-.138l2.947-.558c.078-.015.125.016.138.095l2.525 13.338c.015.077-.015.123-.095.138l-2.945.559c-.078.011-.125-.019-.138-.095l-.915-4.827-1.892 5.377c-.028.066-.061.111-.138.128l-2.423.458c-.099.019-.142-.013-.154-.071-.005-.02.009-.062.02-.105l1.992-5.599-4.48-7.645zm17.625 3.185l-.625-3.961-1.813.778 2.438 3.183zm-1.212-7.98c-.003-.061.007-.088.08-.118l1.975-.848c.055-.024.127-.055.174.053l2.028 13.942c.005.061-.005.088-.06.111l-2.122.91c-.053.022-.098.02-.14-.026l-8.68-11.089c-.048-.108.007-.131.062-.155l2.81-1.205c.053-.023.098-.02.14.025l1.077 1.364 2.901-1.245-.245-1.719zm10.85-.078l3.14 7.473c.044.092.005.172-.06.219l-2.435 1.85c-.063.045-.118.036-.166-.025l-8.2-10.819c-.049-.063-.04-.118.023-.166l2.39-1.814c.062-.046.117-.038.165.025l3.482 4.592-2.445-5.38c-.032-.075-.007-.142.056-.188l1.76-1.337c.064-.047.134-.052.197 0l4.52 3.807-3.482-4.594c-.046-.063-.04-.118.024-.165l1.605-1.216c.061-.047.118-.04.163.021l8.202 10.82c.048.064.04.12-.024.165l-2.373 1.802c-.063.047-.118.04-.182-.013l-6.36-5.057zm3.94-11.322c-.643-.521-.888-1.38-.505-2.135.037-.046.062-.076.117-.083l.925-.013c.068.005.098.003.128.028.032.025.022.068 0 .127-.106.318-.116.488.092.733l.533-.658c.05-.062.105-.067.167-.02l1.747 1.415c.061.05.066.105.018.165l-1.415 1.75c-.048.06-.105.066-.165.016l-1.642-1.325zm12.387-.103c.03-.048.06-.1.127-.06.998.522 1.678.307 1.988-.22.32-.543.235-1.168-.393-1.54-1.595-.947-5.159 3.478-8.909 1.253-2.445-1.448-2.425-3.915-1.218-5.951 1.398-2.36 3.185-2.975 4.987-2.18.066.04.091.078.078.138l-.903 2.835c-.04.068-.084.065-.134.033-1.116-.591-1.681-.373-2.073.285-.413.697-.275 1.352.743 1.957 2.307 1.367 5.272-3.088 8.667-1.077 2.205 1.309 2.217 3.494 1.09 5.395-1.107 1.865-2.76 2.834-4.828 1.954-.069-.042-.092-.079-.069-.157l.847-2.665zm4.915-10.718c1.177.401 1.665.068 1.895-.604l.167-.486-3.027-1.035-.165.486c-.23.674-.047 1.239 1.13 1.639zm3.788.813c-.575 1.682-2.013 3.212-4.833 2.252-1.7-.582-2.435-1.604-2.647-2.697l-6.79.1c-.061-.002-.1-.015-.118-.02-.055-.018-.062-.063-.037-.138l.995-2.914c.014-.035.045-.068.107-.068l6.315.197.127-.375-5.679-1.937c-.075-.027-.1-.077-.073-.15l.97-2.838c.023-.075.073-.102.148-.075l12.85 4.386c.074.024.099.075.075.152l-1.41 4.125zm.969-12.425c.088-.705-.164-1.213-1.415-1.372l-6.772-.861c-1.25-.159-1.623.27-1.715.973-.088.705.165 1.215 1.417 1.375l6.771.86c1.252.16 1.625-.27 1.714-.975zm-8.894 3.325c-3.11-.397-3.491-2.872-3.238-4.868.253-1.995 1.242-4.295 4.355-3.9l6.77.861c3.11.395 3.492 2.87 3.238 4.865-.253 1.997-1.243 4.295-4.353 3.9l-6.772-.858zm8.975-13.402l-11.4.874c-.078.006-.121-.03-.126-.109l-.23-2.988c-.009-.078.03-.122.108-.127l11.4-.875-.222-2.926c-.006-.079.029-.122.109-.127l2.003-.157c.078-.005.12.03.128.11l.697 9.08c.005.08-.032.124-.11.13l-2.005.152c-.078.007-.12-.03-.125-.108l-.227-2.929zm-5.39-10.918l-4.008.005.488 1.912 3.52-1.917zm-8.07-.037c-.061-.003-.085-.018-.105-.095l-.531-2.083c-.015-.057-.034-.132.08-.162l14.081.147c.064.007.087.022.102.078l.57 2.235c.017.059.007.102-.047.135l-12.291 6.862c-.114.032-.13-.027-.144-.083l-.756-2.964c-.015-.056-.005-.1.046-.133l1.514-.853-.78-3.057-1.739-.027zm-.88-2.941c-.071.033-.125.016-.16-.055l-3.238-6.579c-.033-.071-.017-.125.055-.16l12.17-5.99c.07-.033.123-.015.158.057l3.24 6.578c.034.072.015.124-.055.16l-1.805.889c-.07.033-.123.015-.158-.055l-1.863-3.787-2.582 1.272 1.618 3.288c.035.072.017.127-.051.162l-1.805.885c-.072.036-.125.018-.16-.054l-1.62-3.29-3.749 1.849 1.864 3.781c.035.074.016.125-.054.16l-1.805.889zm2.022-16.245c.988-.75.985-1.34.557-1.907l-.312-.408-2.545 1.933.312.408c.43.567.998.727 1.988-.026zm2.79-2.687c1.073 1.413 1.54 3.462-.832 5.265-1.431 1.085-2.688 1.127-3.713.69l-3.703 5.692a.373.373 0 0 1-.084.086c-.048.035-.086.015-.135-.046l-1.863-2.452c-.022-.032-.032-.073.005-.125l3.685-5.13-.24-.315-4.775 3.63c-.062.048-.118.04-.167-.023l-1.813-2.387c-.048-.063-.042-.12.022-.167L104.43 20.4c.065-.047.119-.04.167.022l2.64 3.473zm-16.072-2.157c-.831.949-.711 1.529-.176 1.997.595.52 1.291.502 2.058-.375.053-.058.093-.048.153.005l1.725 2.403c.047.065.022.124-.015.169-1.941 1.735-3.963.751-5.403-.51-1.677-1.469-2.805-3.505-.777-5.82l4.447-5.077c2.03-2.315 4.195-1.467 5.872.003 1.441 1.262 2.683 3.137 1.216 5.29-.036.044-.093.074-.165.039l-2.608-1.395c-.06-.052-.077-.094-.025-.154.767-.873.693-1.568.1-2.088-.535-.468-1.123-.513-1.955.437l-4.447 5.076zm-8.971-9.37l.936-1.858 1.757.887-.938 1.856-1.755-.885zM71.033 7.1c.017-.078.063-.108.142-.092l4.215.93c.076.017.106.065.09.142l-1.402 6.353c-.023.097-.047.112-.073.145-1.17.915-3.045.985-4.545.654-2.175-.48-4.144-1.725-3.482-4.725l1.455-6.585C68.096.918 70.403.62 72.6 1.105c1.866.413 3.856 1.457 3.608 4.047-.013.058-.045.111-.127.113l-2.956.035c-.077-.017-.11-.047-.095-.123.251-1.135-.147-1.707-.917-1.879-.712-.156-1.25.089-1.522 1.319l-1.453 6.586c-.273 1.23.112 1.679.805 1.832.443.098.79.073 1.147-.07l.773-3.502-1.173-.261c-.079-.017-.109-.064-.095-.12l.438-1.982zM60.541 3.852c.002-1.244-.47-1.597-1.18-1.599h-.511l-.007 3.194.513.001c.71 0 1.184-.353 1.185-1.596zM60.093.007c1.775.003 3.685.871 3.683 3.85-.005 1.793-.733 2.818-1.701 3.37l2.276 6.39c.022.06.022.098.022.116 0 .06-.042.08-.12.079l-3.075-.004c-.04 0-.078-.02-.1-.08l-1.843-6.035h-.395l-.009 5.994c0 .078-.038.12-.116.118l-2.999-.005c-.078 0-.118-.038-.118-.117l.02-13.566c.002-.079.04-.117.118-.117l4.357.007zm-8.495.398c.077-.017.122.015.138.092L54.4 13.808c.015.079-.017.122-.094.139l-2.245.45c-.096.018-.145-.032-.173-.067l-4.11-5.455 1.203 6.017c.015.076-.015.125-.091.141l-2.129.424c-.076.016-.125-.015-.14-.094l-2.663-13.31c-.015-.076.015-.123.093-.138l2.225-.445a.158.158 0 0 1 .174.065l4.13 5.452L49.375.968c-.015-.075.016-.121.093-.136l2.13-.427z" mask="url(#b)"/>
    </g>
</svg>
